<?xml version="1.0" encoding="iso-8859-1"?>
<!-- Generator: Adobe Illustrator 19.0.0, SVG Export Plug-In . SVG Version: 6.00 Build 0)  -->
<svg version="1.1" id="Layer_1" xmlns="http://www.w3.org/2000/svg" xmlns:xlink="http://www.w3.org/1999/xlink" x="0px" y="0px"
	 viewBox="0 0 512 512" style="enable-background:new 0 0 512 512;" xml:space="preserve">
<g>
	<g>
		<path d="M418.069,0H93.909C42.042,0,0,42.042,0,93.909v324.181C0,469.958,42.042,512,93.909,512h324.16
			c51.87,0,93.931-42.044,93.931-93.909V93.909C512,42.044,469.939,0,418.069,0z M469.333,418.091
			c0,28.297-22.955,51.243-51.264,51.243H93.909c-28.303,0-51.243-22.939-51.243-51.243V93.909
			c0-28.303,22.939-51.243,51.243-51.243h324.16c28.309,0,51.264,22.945,51.264,51.243V418.091z"/>
	</g>
</g>
<g>
</g>
<g>
</g>
<g>
</g>
<g>
</g>
<g>
</g>
<g>
</g>
<g>
</g>
<g>
</g>
<g>
</g>
<g>
</g>
<g>
</g>
<g>
</g>
<g>
</g>
<g>
</g>
<g>
</g>
</svg>
