<?xml version="1.0" encoding="iso-8859-1"?>
<!-- Generator: Adobe Illustrator 18.1.1, SVG Export Plug-In . SVG Version: 6.00 Build 0)  -->
<svg version="1.1" id="Capa_1" xmlns="http://www.w3.org/2000/svg" xmlns:xlink="http://www.w3.org/1999/xlink" x="0px" y="0px"
	 viewBox="0 0 277.56 277.56" style="enable-background:new 0 0 277.56 277.56;" xml:space="preserve">
<g>
	<path style="fill:#010002;" d="M147.415,13.699l28.522,57.795c4.77,9.671,17.291,18.77,27.968,20.32l63.784,9.268
		c10.671,1.55,13.065,8.909,5.341,16.437l-46.145,44.986c-7.723,7.528-12.504,22.246-10.682,32.879l10.889,63.528
		c1.822,10.633-4.438,15.18-13.984,10.16l-57.045-29.996c-9.546-5.02-25.025-5.02-34.571,0l-57.045,29.996
		c-9.546,5.015-15.806,0.468-13.984-10.16l10.894-63.528c1.822-10.633-2.959-25.351-10.682-32.879L4.53,117.52
		c-7.723-7.528-5.33-14.892,5.341-16.437l63.784-9.268c10.671-1.55,23.192-10.65,27.968-20.32l28.506-57.795
		C134.905,4.023,142.639,4.023,147.415,13.699z"/>
</g>
<g>
</g>
<g>
</g>
<g>
</g>
<g>
</g>
<g>
</g>
<g>
</g>
<g>
</g>
<g>
</g>
<g>
</g>
<g>
</g>
<g>
</g>
<g>
</g>
<g>
</g>
<g>
</g>
<g>
</g>
</svg>
